<?xml version="1.0" encoding="UTF-8"?>
<svg width="512px" height="512px" viewBox="0 0 512 512" version="1.1" xmlns="http://www.w3.org/2000/svg" xmlns:xlink="http://www.w3.org/1999/xlink">
    <title>chrome</title>
    <g id="Page-1" stroke="none" stroke-width="1" fill="none" fill-rule="evenodd">
        <g id="chrome" fill="#FFFFFF" fill-rule="nonzero">
            <circle id="Oval" cx="256" cy="256" r="85"></circle>
            <path d="M143.655,231.412 C154.947,179.777 201.026,141 256,141 L484.861,141 C472.718,116.893 456.661,94.622 437.02,74.98 C388.667,26.629 324.38,0 256,0 C187.62,0 123.333,26.629 74.98,74.98 C70.33,79.63 65.886,84.43 61.643,89.364 L143.655,231.412 Z" id="Path"></path>
            <path d="M290.88,365.587 C279.874,369.098 268.155,371 256,371 C213.282,371 175.932,347.586 156.102,312.918 C155.96,312.699 155.819,312.481 155.687,312.253 L42.011,115.36 C14.681,156.76 0,205.25 0,256 C0,324.38 26.629,388.667 74.98,437.02 C112.023,474.062 158.423,498.336 208.846,507.674 L290.88,365.587 Z" id="Path"></path>
            <path d="M333.379,171 C356.48,192.048 371,222.36 371,256 C371,277.158 365.25,296.995 355.24,314.044 C355.138,314.24 355.05,314.439 354.939,314.632 L241.239,511.568 C246.136,511.844 251.056,512 256,512 C324.38,512 388.667,485.371 437.02,437.02 C485.371,388.667 512,324.38 512,256 C512,226.594 507.062,197.95 497.604,171 L333.379,171 Z" id="Path"></path>
        </g>
    </g>
</svg>