<?xml version="1.0" encoding="UTF-8"?>
<svg width="15px" height="12px" viewBox="0 0 15 12" version="1.1" xmlns="http://www.w3.org/2000/svg" xmlns:xlink="http://www.w3.org/1999/xlink">
    <title>crown</title>
    <g id="Page-1" stroke="none" stroke-width="1" fill="none" fill-rule="evenodd">
        <g id="crown" fill="#00FFF5" fill-rule="nonzero">
            <path d="M14.8715924,3.14713376 C14.7789172,3.07815287 14.6519427,3.07863057 14.5602229,3.14808917 L10.4212739,6.30783439 L7.72394904,0.213630573 C7.64140127,0.0269426752 7.33509554,0.0269426752 7.25235669,0.213630573 L4.52216561,6.37949045 L0.416942675,3.15200637 C0.326273885,3.07920382 0.197292994,3.07824841 0.105286624,3.14665605 C0.0108917197,3.21640127 -0.0246496815,3.33859873 0.0176751592,3.44742038 L2.77949045,10.5814013 C2.81770701,10.6806688 2.91343949,10.7462102 3.01977707,10.7462102 L11.9569108,10.7462102 C12.0632484,10.7462102 12.1594586,10.6806688 12.197293,10.5814013 L14.9588217,3.44742038 C14.9996178,3.33859873 14.9642675,3.21687898 14.8715924,3.14713376 Z M11.9161146,11.6535669 L3.05904459,11.6535669 C2.91716561,11.6535669 2.8010828,11.5382484 2.8010828,11.3957006 C2.8010828,11.2541083 2.91716561,11.1377389 3.05904459,11.1377389 L11.9161146,11.1377389 C12.0576115,11.1377389 12.1740764,11.2541083 12.1740764,11.3957006 C12.1740764,11.5382484 12.057707,11.6535669 11.9161146,11.6535669 Z" id="Shape"></path>
        </g>
    </g>
</svg>