<?xml version="1.0" encoding="UTF-8"?>
<svg width="306px" height="287px" viewBox="0 0 306 287" version="1.1" xmlns="http://www.w3.org/2000/svg" xmlns:xlink="http://www.w3.org/1999/xlink">
    <title>firefox</title>
    <g id="Page-1" stroke="none" stroke-width="1" fill="none" fill-rule="evenodd">
        <g id="firefox" fill="#FFFFFF" fill-rule="nonzero">
            <path d="M301.98,94.88 C300.872,94.71 299.786,95.301 299.324,96.322 L295.911,103.877 C294.615,93.946 292.211,77.962 289.036,67.481 C284.197,51.343 273.949,40.91 273.515,40.473 C272.73,39.684 271.52,39.509 270.542,40.043 C269.566,40.577 269.06,41.692 269.302,42.778 L271.954,54.727 C265.573,48.061 255.322,38.493 245.178,33.829 C242.739,32.64 240.26,31.55 238.089,30.61 C216.051,11.034 187.789,0.258 158.462,0.258 C117.162,0.258 79.522,20.947 57.236,55.745 C55.139,54.051 52.199,51.088 50.514,46.817 C47.45,39.305 45.898,30.866 45.882,30.782 C45.717,29.876 45.069,29.134 44.193,28.85 C43.319,28.566 42.357,28.786 41.692,29.423 C23.326,47.034 25.149,74.49 25.834,80.713 C23.558,83.144 17.125,90.352 10.626,100.751 C2.556,113.672 0.113,136.26 0.014,137.215 C-0.097,138.281 0.482,139.299 1.455,139.747 C2.432,140.195 3.581,139.972 4.315,139.194 L9.69,133.516 C9.104,135.689 8.514,138.166 7.969,140.94 C5.548,152.915 6.256,171.49 6.287,172.275 C6.333,173.425 7.158,174.396 8.287,174.625 C9.415,174.857 10.554,174.284 11.046,173.243 L14.209,166.546 C16.541,182.848 25.494,217.534 59.823,249.487 C85.249,273.171 120.613,286.758 156.848,286.758 C156.852,286.758 156.853,286.758 156.857,286.758 C192.025,286.758 225.231,274.18 252.879,250.386 C285.571,222.222 297.75,182.002 302.209,153.22 C307.023,122.147 304.205,98.062 304.082,97.052 C303.949,95.938 303.09,95.05 301.98,94.88 Z M246.16,95.785 C246.194,95.829 249.586,100.271 250.326,111.653 C250.836,120.171 249.088,133.793 247.985,141.246 L241.324,133.517 C240.605,132.683 239.428,132.415 238.42,132.862 C237.413,133.307 236.816,134.358 236.949,135.45 C236.972,135.642 239.242,154.887 235.423,171.615 C233.615,179.476 230.786,185.127 228.359,188.856 L229.29,176.256 C229.379,175.047 228.589,173.949 227.414,173.65 C226.238,173.349 225.018,173.936 224.519,175.041 C224.407,175.29 212.861,200.078 181.24,209.893 C176.824,211.253 172.173,211.943 167.415,211.943 C150.561,211.943 135.247,203.345 126.566,197.303 C127.313,197.341 128.056,197.36 128.795,197.36 C141.23,197.36 150.793,192.003 158.479,187.698 C160.498,186.567 162.405,185.499 164.24,184.592 C175.285,179.038 180.42,178.572 184.365,178.572 C186.449,178.572 188.056,177.355 188.56,175.397 C189.795,170.591 184.017,162.025 176.882,158.097 C173.343,156.173 169.559,155.277 164.976,155.277 C157.684,155.277 148.643,157.577 135.692,161.083 C133.315,161.717 130.968,162.039 128.716,162.039 C120.78,162.04 115.532,158.201 112.527,154.98 C108.483,150.646 106.18,144.919 106.519,140.035 C106.673,137.808 107.545,135.531 112.844,135.531 C117.545,135.531 122.77,137.469 122.821,137.487 C123.106,137.595 123.405,137.648 123.702,137.648 C123.707,137.648 123.714,137.648 123.721,137.648 C125.102,137.648 126.221,136.529 126.221,135.148 C126.221,135.013 126.21,134.88 126.19,134.751 L125.491,112.852 C128.016,111.242 134.058,107.325 139.866,103.103 C153.917,92.889 155.799,88.983 154.295,86.016 C152.303,81.976 147.06,81.32 140.989,80.56 C137.515,80.125 133.578,79.632 130.022,78.455 C122.614,75.993 117.733,69.597 116.622,68.025 C116.392,66.709 115.842,62.275 118.017,58.49 C120.371,54.353 128.512,47.948 131.451,45.828 C132.291,45.223 132.671,44.162 132.406,43.161 C132.141,42.161 131.287,41.426 130.258,41.315 C130.006,41.287 122.537,40.541 110.336,44.581 C100.402,47.909 92.697,53.303 90.042,55.304 C88.9,55.08 86.945,54.771 83.706,54.437 C102.731,32.953 129.716,20.723 158.466,20.723 C179.567,20.723 199.504,27.14 216.478,39.341 L199.67,42.152 C198.528,42.343 197.667,43.293 197.588,44.447 C197.509,45.602 198.234,46.66 199.338,47.005 C199.562,47.075 221.946,54.151 238.648,67.026 C242.365,69.935 245.763,73.702 248.752,78.225 C251.539,84.199 253.72,90.359 255.265,96.612 L249.645,92.245 C248.647,91.47 247.239,91.573 246.349,92.468 C245.454,93.361 245.38,94.792 246.16,95.785 Z" id="XMLID_22_"></path>
        </g>
    </g>
</svg>