<?xml version="1.0" encoding="UTF-8"?>
<svg width="512px" height="512px" viewBox="0 0 512 512" version="1.1" xmlns="http://www.w3.org/2000/svg" xmlns:xlink="http://www.w3.org/1999/xlink">
    <title>logo</title>
    <g id="logo" stroke="none" stroke-width="1" fill="none" fill-rule="evenodd">
        <path d="M156,180 L186.230179,180 L231.575448,270.690537 L231.575448,244.601893 L269.332941,244.601893 L231.575448,187.255243 L231.575448,180 L301.967545,180.000478 C303.246429,180.024588 313.27012,180.97373 323.293811,185.985575 C338.106598,193.180358 346.359437,206.93509 346.359437,224.287212 C346.359437,231.058772 345.301381,237.195499 342.973657,242.48578 C341.069156,247.56445 338.106598,252.008286 334.297596,255.605678 C327.737647,261.954015 319.908031,265.128184 313.559693,266.609463 L313.559693,266.609463 L356.94,331.150895 L325.833146,331.150895 L284.145729,267.87913 L259.175601,267.87913 L259.175601,331.150895 L231.575448,331.150895 L156,180 Z M301.726427,203.972756 L273.988389,203.972532 L299.804962,244.601893 L302.351953,244.600913 C304.025431,244.584258 312.819054,244.284476 318.215141,238.888389 C321.389309,235.502609 323.082199,230.847161 323.082199,224.287212 C323.082199,215.822762 319.908031,210.32087 313.136471,206.93509 C307.634578,204.184143 301.921074,203.972532 301.709463,203.972532 Z" id="VR" fill="#FFFFFF" fill-rule="nonzero"></path>
    </g>
</svg>