<?xml version="1.0" encoding="UTF-8"?>
<svg width="512px" height="360px" viewBox="0 0 512 360" version="1.1" xmlns="http://www.w3.org/2000/svg" xmlns:xlink="http://www.w3.org/1999/xlink">
    <title>mail</title>
    <g id="Page-1" stroke="none" stroke-width="1" fill="none" fill-rule="evenodd">
        <g id="mail" fill="#FFFFFF" fill-rule="nonzero">
            <path d="M507.49,25.721 L352.211,180 L507.49,334.279 C510.297,328.412 512,321.926 512,315 L512,45 C512,38.073 510.297,31.588 507.49,25.721 Z" id="Path"></path>
            <path d="M467,0 L45,0 C38.073,0 31.588,1.703 25.721,4.51 L224.184,201.973 C241.732,219.521 270.268,219.521 287.816,201.973 L486.279,4.51 C480.412,1.703 473.927,0 467,0 Z" id="Path"></path>
            <path d="M4.51,25.721 C1.703,31.588 0,38.073 0,45 L0,315 C0,321.927 1.703,328.413 4.51,334.279 L159.789,180 L4.51,25.721 Z" id="Path"></path>
            <path d="M331,201.211 L309.027,223.184 C279.788,252.423 232.211,252.423 202.972,223.184 L181,201.211 L25.721,355.49 C31.588,358.297 38.073,360 45,360 L467,360 C473.927,360 480.412,358.297 486.279,355.49 L331,201.211 Z" id="Path"></path>
        </g>
    </g>
</svg>