<?xml version="1.0" encoding="UTF-8"?>
<svg width="15px" height="16px" viewBox="0 0 15 16" version="1.1" xmlns="http://www.w3.org/2000/svg" xmlns:xlink="http://www.w3.org/1999/xlink">
    <title>site</title>
    <g id="Page-1" stroke="none" stroke-width="1" fill="none" fill-rule="evenodd">
        <g id="site" fill="#FFFFFF" fill-rule="nonzero">
            <path d="M3.34153846,6.82092308 L1.65292308,8.50953846 C0.210865112,9.95159643 0.210865112,12.2896343 1.65292308,13.7316923 C3.09498104,15.1737503 5.43301896,15.1737503 6.87507692,13.7316923 L9.12492308,11.4806154 C9.97230617,10.6331117 10.3556379,9.42704867 10.1530591,8.24582793 C9.9504802,7.06460719 9.18719426,6.05518864 8.10584615,5.53846154 L7.38461538,6.25969231 C7.31138521,6.33303577 7.2477027,6.41532681 7.19507692,6.50461538 C8.0328011,6.74544298 8.68069375,7.41134954 8.89846254,8.25536167 C9.11623133,9.09937381 8.87139882,9.99561791 8.25476923,10.6116923 L6.00615385,12.8615385 C5.04432871,13.8233636 3.48490206,13.8233636 2.52307692,12.8615385 C1.56125179,11.8997133 1.56125179,10.3402867 2.52307692,9.37846154 L3.49907692,8.40369231 C3.36137243,7.88766363 3.30817053,7.35273518 3.34153846,6.81969231 L3.34153846,6.82092308 Z" id="Path"></path>
            <path d="M5.64430769,4.51938462 C4.7969246,5.36688832 4.41359283,6.57295133 4.6161717,7.75417207 C4.81875057,8.93539281 5.58203651,9.94481136 6.66338462,10.4615385 L7.61723077,9.50646154 C6.76792293,9.2786521 6.1046381,8.61509052 5.87718296,7.76568773 C5.64972781,6.91628494 5.89265058,6.0100569 6.51446154,5.38830769 L8.76307692,3.13846154 C9.72490206,2.1766364 11.2843287,2.1766364 12.2461538,3.13846154 C13.207979,4.10028667 13.207979,5.65971333 12.2461538,6.62153846 L11.2701538,7.59630769 C11.408,8.11323077 11.4609231,8.64861538 11.4276923,9.18030769 L13.1163077,7.49169231 C14.5583657,6.04963434 14.5583657,3.71159643 13.1163077,2.26953846 C11.6742497,0.827480496 9.33621181,0.827480496 7.89415385,2.26953846 L5.64430769,4.51938462 Z" id="Path"></path>
        </g>
    </g>
</svg>