<?xml version="1.0" encoding="UTF-8"?>
<svg width="21px" height="12px" viewBox="0 0 21 12" version="1.1" xmlns="http://www.w3.org/2000/svg" xmlns:xlink="http://www.w3.org/1999/xlink">
    <title>vk</title>
    <g id="Page-1" stroke="none" stroke-width="1" fill="none" fill-rule="evenodd">
        <path d="M3.17964452,0 L0.96861294,0 C0.336882413,0 0.210528729,0.297347368 0.210528729,0.625136842 C0.210528729,1.21067368 0.960124519,4.11461053 3.70076031,7.95530526 C5.52785504,10.5781895 8.10204452,12 10.4445077,12 C11.8499603,12 12.023834,11.6842105 12.023834,11.1402947 L12.023834,9.15789474 C12.023834,8.52631579 12.1569708,8.40025263 12.6019814,8.40025263 C12.9299603,8.40025263 13.4921287,8.56421053 14.8039182,9.82882105 C16.3030972,11.3276211 16.550234,12 17.393455,12 L19.6044866,12 C20.236255,12 20.5521077,11.6842105 20.3698972,11.0610316 C20.1705077,10.4399368 19.4547393,9.53873684 18.5049708,8.47054737 C17.9896024,7.86164211 17.2166129,7.20593684 16.9823603,6.87802105 C16.6544445,6.45650526 16.7481077,6.26911579 16.9823603,5.89446316 C16.9823603,5.89446316 19.6761708,2.10056842 19.9572866,0.812589474 C20.0978129,0.344147368 19.9572866,0 19.288634,0 L17.0776024,0 C16.515434,0 16.256234,0.297347368 16.1156445,0.625136842 C16.1156445,0.625136842 14.9913077,3.36517895 13.3984656,5.14503158 C12.8830972,5.66021053 12.6488445,5.82416842 12.3677287,5.82416842 C12.2272024,5.82416842 12.0237708,5.66021053 12.0237708,5.19189474 L12.0237708,0.812589474 C12.0237708,0.250484211 11.860634,0 11.3920656,0 L7.91756031,0 C7.5662761,0 7.35494978,0.260842105 7.35494978,0.508105263 C7.35494978,1.04090526 8.15137083,1.16381053 8.2334761,2.66261053 L8.2334761,5.91789474 C8.2334761,6.63157895 8.10450768,6.76098947 7.82345504,6.76098947 C7.07389715,6.76098947 5.25059189,4.00869474 4.16920241,0.859389474 C3.95730768,0.247263158 3.7447182,0 3.17964452,0 L3.17964452,0 Z" id="vk" fill="#FFFFFF"></path>
    </g>
</svg>